<?xml version="1.0" encoding="utf-8"?>
<!-- Generator: Adobe Illustrator 16.0.0, SVG Export Plug-In . SVG Version: 6.00 Build 0)  -->
<!DOCTYPE svg PUBLIC "-//W3C//DTD SVG 1.1//EN" "http://www.w3.org/Graphics/SVG/1.1/DTD/svg11.dtd">
<svg version="1.1" id="Layer_1" xmlns="http://www.w3.org/2000/svg" xmlns:xlink="http://www.w3.org/1999/xlink" x="0px" y="0px"
	 width="200px" height="200px" viewBox="0 0 200 200" enable-background="new 0 0 200 200" xml:space="preserve">
<g>
	<path fill="#005DA8" d="M104.497,132.188H77.979V75.45H26.266v56.738h-26.52V-0.199h26.52v53.646h51.712V-0.199h26.519V132.188z"/>
	<path fill="#00A651" d="M173.646,163.648c0-5.152-1.771-9.106-5.305-11.867c-3.537-2.757-9.901-5.667-19.095-8.729
		c-9.193-3.06-16.472-6.075-21.835-9.046c-14.615-8.124-21.923-19.065-21.923-32.825c0-7.151,1.96-13.533,5.88-19.139
		c3.918-5.605,9.547-9.985,16.884-13.139c7.337-3.152,15.571-4.728,24.707-4.728c9.193,0,17.385,1.713,24.575,5.136
		c7.188,3.428,12.772,8.261,16.751,14.503c3.978,6.244,5.967,13.335,5.967,21.276h-26.519c0-6.061-1.858-10.775-5.569-14.138
		c-3.712-3.364-8.929-5.045-15.646-5.045c-6.485,0-11.522,1.408-15.116,4.228c-3.595,2.817-5.393,6.531-5.393,11.137
		c0,4.305,2.105,7.91,6.319,10.82s10.415,5.637,18.608,8.183c15.086,4.669,26.078,10.456,32.973,17.367
		c6.896,6.91,10.343,15.518,10.343,25.822c0,11.457-4.214,20.444-12.642,26.96s-19.772,9.774-34.032,9.774
		c-9.902,0-18.918-1.863-27.051-5.592c-8.132-3.729-14.335-8.835-18.608-15.322c-4.271-6.484-6.408-14.002-6.408-22.549h26.609
		c0,14.609,8.484,21.912,25.458,21.912c6.305,0,11.226-1.317,14.763-3.954C171.876,172.056,173.646,168.375,173.646,163.648z"/>
</g>
</svg>
